<?xml version="1.0" standalone="no"?>
<!DOCTYPE svg PUBLIC "-//W3C//DTD SVG 20010904//EN"
 "http://www.w3.org/TR/2001/REC-SVG-20010904/DTD/svg10.dtd">
<svg version="1.0" xmlns="http://www.w3.org/2000/svg"
 width="512.000000pt" height="512.000000pt" viewBox="0 0 512.000000 512.000000"
 preserveAspectRatio="xMidYMid meet">
<metadata>
Created by potrace 1.14, written by Peter Selinger 2001-2017
</metadata>
<g transform="translate(0.000000,512.000000) scale(0.100000,-0.100000)"
fill="#000000" stroke="none">
<path d="M1129 5116 c-2 -2 -26 -6 -54 -9 -386 -45 -761 -316 -943 -683 -40
-79 -95 -239 -106 -304 -3 -19 -9 -46 -13 -60 -4 -14 -9 -677 -10 -1475 -2
-1376 -1 -1455 16 -1550 50 -266 160 -475 350 -665 200 -199 438 -321 699
-357 31 -4 714 -8 1517 -8 l1460 0 108 27 c347 89 627 296 795 589 83 145 126
263 157 439 19 102 16 2975 -2 3030 -7 19 -15 51 -18 70 -18 104 -101 292
-183 415 -65 98 -239 269 -342 336 -135 87 -290 154 -418 179 -26 5 -58 13
-72 17 -25 7 -2933 17 -2941 9z"/>
</g>
</svg>
